<svg width="18" height="18" viewBox="0 0 18 18" fill="none" xmlns="http://www.w3.org/2000/svg">
<path d="M13.3567 1.01648C11.6003 0.87515 10.0098 1.65379 9.0005 2.93242C7.99116 1.65379 6.40066 0.87515 4.64429 1.01648C1.66644 1.25781 -0.334225 4.20838 0.0463645 7.24029C0.734254 12.7255 6.66296 16 8.48233 16.8853C8.63919 16.9613 8.80635 16.996 8.97221 17H9.0275C9.19465 16.996 9.36052 16.9613 9.51738 16.8853C11.3368 16 17.2667 12.7255 17.9533 7.24029C18.3352 4.20838 16.3346 1.25781 13.3567 1.01648Z" fill="#6040FF"/>
<path fill-rule="evenodd" clip-rule="evenodd" d="M9.0005 2.93242C10.0098 1.65379 11.6003 0.87515 13.3567 1.01648C16.3346 1.25781 18.3352 4.20838 17.9533 7.24029C17.2667 12.7255 11.3368 16 9.51738 16.8853C9.36051 16.9613 9.19465 16.996 9.0275 17H9L9 2.93179C9.00017 2.932 9.00033 2.93221 9.0005 2.93242Z" fill="#00FFEA"/>
</svg>
