<svg width="18" height="18" viewBox="0 0 18 18" fill="none" xmlns="http://www.w3.org/2000/svg">
<path d="M12 3H13.5C13.8978 3 14.2794 3.16389 14.5607 3.45561C14.842 3.74733 15 4.143 15 4.55556V15.4444C15 15.857 14.842 16.2527 14.5607 16.5444C14.2794 16.8361 13.8978 17 13.5 17H4.5C4.10218 17 3.72064 16.8361 3.43934 16.5444C3.15804 16.2527 3 15.857 3 15.4444V4.55556C3 4.143 3.15804 3.74733 3.43934 3.45561C3.72064 3.16389 4.10218 3 4.5 3H6" stroke="#9087C0" stroke-width="2" stroke-linecap="round" stroke-linejoin="round"/>
<path d="M11.25 1H6.75C6.33579 1 6 1.44772 6 2V4C6 4.55228 6.33579 5 6.75 5H11.25C11.6642 5 12 4.55228 12 4V2C12 1.44772 11.6642 1 11.25 1Z" stroke="#9087C0" stroke-width="2" stroke-linecap="round" stroke-linejoin="round"/>
</svg>
