<svg width="18" height="18" viewBox="0 0 18 18" fill="none" xmlns="http://www.w3.org/2000/svg">
<path d="M12.5 2H14.25C14.7141 2 15.1592 2.1873 15.4874 2.5207C15.8156 2.8541 16 3.30628 16 3.77778V16.2222C16 16.6937 15.8156 17.1459 15.4874 17.4793C15.1592 17.8127 14.7141 18 14.25 18H3.75C3.28587 18 2.84075 17.8127 2.51256 17.4793C2.18437 17.1459 2 16.6937 2 16.2222V3.77778C2 3.30628 2.18437 2.8541 2.51256 2.5207C2.84075 2.1873 3.28587 2 3.75 2H5.5" fill="#6040FF"/>
<path d="M12 0H6C5.44772 0 5 0.447715 5 1V3C5 3.55228 5.44772 4 6 4H12C12.5523 4 13 3.55228 13 3V1C13 0.447715 12.5523 0 12 0Z" fill="#00FFEA"/>
</svg>
