<svg width="10" height="10" viewBox="0 0 10 10" fill="none" xmlns="http://www.w3.org/2000/svg">
<path d="M6.41401 5.00001L9.70701 1.70701C10.098 1.31601 10.098 0.684006 9.70701 0.293006C9.31601 -0.0979941 8.68401 -0.0979941 8.29301 0.293006L5.00001 3.58601L1.70701 0.293006C1.31601 -0.0979941 0.684006 -0.0979941 0.293006 0.293006C-0.0979941 0.684006 -0.0979941 1.31601 0.293006 1.70701L3.58601 5.00001L0.293006 8.29301C-0.0979941 8.68401 -0.0979941 9.31601 0.293006 9.70701C0.488006 9.90201 0.744006 10 1.00001 10C1.25601 10 1.51201 9.90201 1.70701 9.70701L5.00001 6.41401L8.29301 9.70701C8.48801 9.90201 8.74401 10 9.00001 10C9.25601 10 9.51201 9.90201 9.70701 9.70701C10.098 9.31601 10.098 8.68401 9.70701 8.29301L6.41401 5.00001Z" fill="#9087C0"/>
</svg>
