<?xml version="1.0" encoding="utf-8"?>
<!-- Generator: Adobe Illustrator 22.0.0, SVG Export Plug-In . SVG Version: 6.00 Build 0)  -->
<svg version="1.1" id="Layer_1" xmlns="http://www.w3.org/2000/svg" xmlns:xlink="http://www.w3.org/1999/xlink" x="0px" y="0px"
	 viewBox="0 0 16 16" style="enable-background:new 0 0 16 16;" xml:space="preserve">
<style type="text/css">
	.st0{fill:#6040FF;}
</style>
<path class="st0" d="M3.2,0L3.2,0C5,0,6.4,1.4,6.4,3.2l0,0C6.4,5,5,6.4,3.2,6.4l0,0C1.4,6.4,0,5,0,3.2l0,0C0,1.4,1.4,0,3.2,0z"/>
<path class="st0" d="M12.8,0L12.8,0C14.6,0,16,1.4,16,3.2l0,0c0,1.8-1.4,3.2-3.2,3.2l0,0C11,6.4,9.6,5,9.6,3.2l0,0
	C9.6,1.4,11,0,12.8,0z"/>
<path class="st0" d="M3.2,9.6L3.2,9.6c1.8,0,3.2,1.4,3.2,3.2l0,0C6.4,14.6,5,16,3.2,16l0,0C1.4,16,0,14.6,0,12.8l0,0
	C0,11,1.4,9.6,3.2,9.6z"/>
<path class="st0" d="M12.8,9.6L12.8,9.6c1.8,0,3.2,1.4,3.2,3.2l0,0c0,1.8-1.4,3.2-3.2,3.2l0,0c-1.8,0-3.2-1.4-3.2-3.2l0,0
	C9.6,11,11,9.6,12.8,9.6z"/>
</svg>
