<svg width="18" height="18" viewBox="0 0 18 18" fill="none" xmlns="http://www.w3.org/2000/svg">
<path d="M8 9.60527C8.28765 10.0046 8.65465 10.3351 9.07609 10.5742C9.49754 10.8133 9.96357 10.9555 10.4426 10.9911C10.9216 11.0267 11.4024 10.955 11.8523 10.7807C12.3023 10.6064 12.7109 10.3336 13.0504 9.98089L15.0599 7.89412C15.6699 7.23817 16.0075 6.35963 15.9999 5.44773C15.9922 4.53582 15.64 3.66351 15.0191 3.01867C14.3981 2.37383 13.5581 2.00806 12.68 2.00013C11.8019 1.99221 10.9559 2.34276 10.3243 2.9763L9.17218 4.16576" stroke="#9087C0" stroke-width="2" stroke-linecap="round" stroke-linejoin="round"/>
<path d="M10 8.39473C9.71235 7.99537 9.34535 7.66493 8.9239 7.42582C8.50246 7.1867 8.03643 7.04451 7.55741 7.00889C7.0784 6.97326 6.59761 7.04503 6.14765 7.21934C5.6977 7.39364 5.2891 7.6664 4.94958 8.01911L2.94013 10.1059C2.33006 10.7618 1.9925 11.6404 2.00013 12.5523C2.00776 13.4642 2.35998 14.3365 2.98092 14.9813C3.60187 15.6262 4.44186 15.9919 5.31998 15.9999C6.1981 16.0078 7.04409 15.6572 7.67573 15.0237L8.82112 13.8342" stroke="#9087C0" stroke-width="2" stroke-linecap="round" stroke-linejoin="round"/>
</svg>
