<?xml version="1.0" encoding="utf-8"?>
<!-- Generator: Adobe Illustrator 22.0.0, SVG Export Plug-In . SVG Version: 6.00 Build 0)  -->
<svg version="1.1" id="Layer_1" xmlns="http://www.w3.org/2000/svg" xmlns:xlink="http://www.w3.org/1999/xlink" x="0px" y="0px"
	 viewBox="0 0 14 12" style="enable-background:new 0 0 14 12;" xml:space="preserve">
<style type="text/css">
	.st0{fill:#6040FF;}
</style>
<g>
	<path class="st0" d="M7,12c-0.3,0-0.6-0.1-0.8-0.2C4.5,11.1,0.6,8.8,0,5c-0.2-1.3,0.2-2.7,1.1-3.7C1.9,0.5,2.9,0,4.1,0
		C5.2,0,6.2,0.5,7,1.3C7.8,0.5,8.8,0,9.9,0c0,0,0,0,0,0c1.2,0,2.2,0.5,3,1.4c0.8,1,1.2,2.3,1.1,3.7c-0.5,3.8-4.5,6-6.2,6.8
		C7.5,11.9,7.3,12,7,12z M7.3,10.9L7.3,10.9L7.3,10.9z M4.1,2C3.4,2,2.9,2.4,2.6,2.7C2.1,3.2,1.9,4,2,4.8C2.4,7.6,5.8,9.4,7,10
		c1.2-0.5,4.6-2.4,5-5.2c0.1-0.8-0.1-1.6-0.6-2.1C11.1,2.4,10.6,2,9.9,2c0,0,0,0,0,0c-1.2,0-1.8,1.1-2,1.6C7.8,4,7.4,4.2,7,4.2
		c0,0,0,0,0,0C6.6,4.2,6.2,4,6.1,3.6C5.9,3.1,5.3,2,4.1,2z"/>
</g>
</svg>
