<?xml version="1.0" encoding="utf-8"?>
<!-- Generator: Adobe Illustrator 22.0.0, SVG Export Plug-In . SVG Version: 6.00 Build 0)  -->
<svg version="1.1" id="Layer_1" xmlns="http://www.w3.org/2000/svg" xmlns:xlink="http://www.w3.org/1999/xlink" x="0px" y="0px"
	 viewBox="0 0 14 12" style="enable-background:new 0 0 14 12;" xml:space="preserve">
<style type="text/css">
	.st0{fill:#6040FF;}
</style>
<path class="st0" d="M12.9,1.4C12.1,0.5,11.1,0,9.9,0c0,0,0,0,0,0C8.8,0,7.8,0.5,7,1.3C6.2,0.5,5.2,0,4.1,0c-1.2,0-2.2,0.5-3,1.4
	C0.3,2.3-0.1,3.7,0,5c0.5,3.8,4.5,6,6.2,6.8C6.5,11.9,6.7,12,7,12c0.3,0,0.5-0.1,0.7-0.2c1.7-0.8,5.7-3,6.2-6.8
	C14.1,3.7,13.7,2.3,12.9,1.4z"/>
</svg>
