<svg width="18" height="18" viewBox="0 0 18 18" fill="none" xmlns="http://www.w3.org/2000/svg">
<path d="M15.0545 11.4545C14.9456 11.7013 14.9131 11.9751 14.9613 12.2405C15.0094 12.5059 15.1359 12.7508 15.3245 12.9436L15.3736 12.9927C15.5258 13.1447 15.6465 13.3252 15.7288 13.5238C15.8112 13.7225 15.8536 13.9354 15.8536 14.1505C15.8536 14.3655 15.8112 14.5784 15.7288 14.7771C15.6465 14.9757 15.5258 15.1562 15.3736 15.3082C15.2217 15.4603 15.0412 15.581 14.8425 15.6634C14.6439 15.7457 14.431 15.7881 14.2159 15.7881C14.0009 15.7881 13.7879 15.7457 13.5893 15.6634C13.3906 15.581 13.2102 15.4603 13.0582 15.3082L13.0091 15.2591C12.8163 15.0705 12.5714 14.9439 12.3059 14.8958C12.0405 14.8477 11.7668 14.8802 11.52 14.9891C11.278 15.0928 11.0716 15.265 10.9263 15.4845C10.7809 15.704 10.7029 15.9613 10.7018 16.2245V16.3636C10.7018 16.7976 10.5294 17.2138 10.2225 17.5207C9.91566 17.8276 9.49944 18 9.06545 18C8.63146 18 8.21525 17.8276 7.90837 17.5207C7.60149 17.2138 7.42909 16.7976 7.42909 16.3636V16.29C7.42276 16.0192 7.3351 15.7565 7.17751 15.5362C7.01992 15.3159 6.79969 15.1481 6.54545 15.0545C6.29868 14.9456 6.02493 14.9131 5.75952 14.9613C5.4941 15.0094 5.24919 15.1359 5.05636 15.3245L5.00727 15.3736C4.8553 15.5258 4.67483 15.6465 4.47617 15.7288C4.27752 15.8112 4.06459 15.8536 3.84955 15.8536C3.6345 15.8536 3.42157 15.8112 3.22292 15.7288C3.02426 15.6465 2.84379 15.5258 2.69182 15.3736C2.53967 15.2217 2.41898 15.0412 2.33663 14.8425C2.25428 14.6439 2.21189 14.431 2.21189 14.2159C2.21189 14.0009 2.25428 13.7879 2.33663 13.5893C2.41898 13.3906 2.53967 13.2102 2.69182 13.0582L2.74091 13.0091C2.92953 12.8163 3.05606 12.5714 3.10419 12.3059C3.15231 12.0405 3.11982 11.7668 3.01091 11.52C2.90719 11.278 2.73498 11.0716 2.51547 10.9263C2.29596 10.7809 2.03873 10.7029 1.77545 10.7018H1.63636C1.20237 10.7018 0.786157 10.5294 0.47928 10.2225C0.172402 9.91566 0 9.49944 0 9.06545C0 8.63146 0.172402 8.21525 0.47928 7.90837C0.786157 7.60149 1.20237 7.42909 1.63636 7.42909H1.71C1.98081 7.42276 2.24346 7.3351 2.46379 7.17751C2.68412 7.01992 2.85195 6.79969 2.94545 6.54545C3.05437 6.29868 3.08686 6.02493 3.03873 5.75952C2.99061 5.4941 2.86408 5.24919 2.67545 5.05636L2.62636 5.00727C2.47422 4.8553 2.35352 4.67483 2.27117 4.47617C2.18883 4.27752 2.14644 4.06459 2.14644 3.84955C2.14644 3.6345 2.18883 3.42157 2.27117 3.22292C2.35352 3.02426 2.47422 2.84379 2.62636 2.69182C2.77834 2.53967 2.95881 2.41898 3.15746 2.33663C3.35611 2.25428 3.56905 2.21189 3.78409 2.21189C3.99913 2.21189 4.21207 2.25428 4.41072 2.33663C4.60937 2.41898 4.78984 2.53967 4.94182 2.69182L4.99091 2.74091C5.18374 2.92953 5.42865 3.05606 5.69406 3.10419C5.95948 3.15231 6.23322 3.11982 6.48 3.01091H6.54545C6.78745 2.90719 6.99383 2.73498 7.1392 2.51547C7.28457 2.29596 7.36259 2.03873 7.36364 1.77545V1.63636C7.36364 1.20237 7.53604 0.786157 7.84292 0.47928C8.14979 0.172402 8.56601 0 9 0C9.43399 0 9.85021 0.172402 10.1571 0.47928C10.464 0.786157 10.6364 1.20237 10.6364 1.63636V1.71C10.6374 1.97328 10.7154 2.23051 10.8608 2.45002C11.0062 2.66953 11.2126 2.84174 11.4545 2.94545C11.7013 3.05437 11.9751 3.08686 12.2405 3.03873C12.5059 2.99061 12.7508 2.86408 12.9436 2.67545L12.9927 2.62636C13.1447 2.47422 13.3252 2.35352 13.5238 2.27117C13.7225 2.18883 13.9354 2.14644 14.1505 2.14644C14.3655 2.14644 14.5784 2.18883 14.7771 2.27117C14.9757 2.35352 15.1562 2.47422 15.3082 2.62636C15.4603 2.77834 15.581 2.95881 15.6634 3.15746C15.7457 3.35611 15.7881 3.56905 15.7881 3.78409C15.7881 3.99913 15.7457 4.21207 15.6634 4.41072C15.581 4.60937 15.4603 4.78984 15.3082 4.94182L15.2591 4.99091C15.0705 5.18374 14.9439 5.42865 14.8958 5.69406C14.8477 5.95948 14.8802 6.23322 14.9891 6.48V6.54545C15.0928 6.78745 15.265 6.99383 15.4845 7.1392C15.704 7.28457 15.9613 7.36259 16.2245 7.36364H16.3636C16.7976 7.36364 17.2138 7.53604 17.5207 7.84292C17.8276 8.14979 18 8.56601 18 9C18 9.43399 17.8276 9.85021 17.5207 10.1571C17.2138 10.464 16.7976 10.6364 16.3636 10.6364H16.29C16.0267 10.6374 15.7695 10.7154 15.55 10.8608C15.3305 11.0062 15.1583 11.2126 15.0545 11.4545Z" fill="#6040FF"/>
<path d="M9 11C10.1046 11 11 10.1046 11 9C11 7.89543 10.1046 7 9 7C7.89543 7 7 7.89543 7 9C7 10.1046 7.89543 11 9 11Z" fill="#6040FF" stroke="#00FFEA" stroke-width="2" stroke-linecap="round" stroke-linejoin="round"/>
</svg>
