<?xml version="1.0" encoding="utf-8"?>
<!-- Generator: Adobe Illustrator 22.0.0, SVG Export Plug-In . SVG Version: 6.00 Build 0)  -->
<svg version="1.1" id="Layer_1" xmlns="http://www.w3.org/2000/svg" xmlns:xlink="http://www.w3.org/1999/xlink" x="0px" y="0px"
	 viewBox="0 0 600 600" style="enable-background:new 0 0 600 600;" xml:space="preserve">
<style type="text/css">
	.st0{fill:none;stroke:#EEEEEE;stroke-width:10;stroke-miterlimit:10;}
	.st1{fill:#EEEEEE;stroke:#EEEEEE;stroke-width:10;stroke-miterlimit:10;}
	.st2{fill:#333333;}
	.st3{fill:#EEEEEE;}
</style>
<circle class="st0" cx="300" cy="300" r="232"/>
<image style="overflow:visible;" width="240" height="240" xlink:href="DevTop.png"  transform="matrix(1 0 0 1 180 180)">
</image>
<circle class="st1" cx="300" cy="68" r="53"/>
<g>
	<g>
		<g>
			<path class="st2" d="M324.8,36.9h-11.4l0.8,3.6c0.1,0.4,0.1,0.9,0,1.3h8.1v57.4h-45V41.7h8.1c0-0.4-0.1-0.9,0-1.3l0.8-3.5h-11.4
				c-1.3,0-2.4,1.1-2.4,2.4v62.3c0,1.3,1.1,2.4,2.4,2.4h49.9c1.3,0,2.4-1.1,2.4-2.4V39.3C327.2,38,326.1,36.9,324.8,36.9z"/>
			<path class="st2" d="M316.6,54.5H300c-1.3,0-2.4,1.1-2.4,2.4c0,1.3,1.1,2.4,2.4,2.4h16.6c1.3,0,2.4-1.1,2.4-2.4
				C319.1,55.6,318,54.5,316.6,54.5z"/>
			<path class="st2" d="M316.6,69.4H300c-1.3,0-2.4,1.1-2.4,2.4c0,1.3,1.1,2.4,2.4,2.4h16.6c1.3,0,2.4-1.1,2.4-2.4
				C319.1,70.5,318,69.4,316.6,69.4z"/>
			<path class="st2" d="M281.5,55c-1,0.9-1.2,2.4-0.3,3.4l3.6,4.2c0.5,0.6,1.1,0.9,1.9,0.9c0.1,0,0.1,0,0.2,0
				c0.8-0.1,1.5-0.5,1.9-1.1l6.4-10.3c0.7-1.1,0.4-2.6-0.8-3.3c-1.1-0.7-2.6-0.4-3.3,0.8l-4.6,7.5l-1.4-1.6
				C284.1,54.3,282.5,54.2,281.5,55z"/>
			<path class="st2" d="M287.3,68.2c-2,0-3.7,1.6-3.7,3.7c0,2,1.6,3.7,3.7,3.7c2,0,3.7-1.6,3.7-3.7C291,69.8,289.3,68.2,287.3,68.2z
				"/>
			<path class="st2" d="M316.6,84H300c-1.3,0-2.4,1.1-2.4,2.4c0,1.3,1.1,2.4,2.4,2.4h16.6c1.3,0,2.4-1.1,2.4-2.4
				C319.1,85.1,318,84,316.6,84z"/>
			<path class="st2" d="M287.3,82.8c-2,0-3.7,1.6-3.7,3.7c0,2,1.6,3.7,3.7,3.7c2,0,3.7-1.6,3.7-3.7C291,84.4,289.3,82.8,287.3,82.8z
				"/>
			<path class="st2" d="M289.5,42.9h20.7c0.5,0,1-0.2,1.3-0.6c0.3-0.4,0.4-0.9,0.3-1.4l-1.7-7.9c-0.2-0.8-0.8-1.3-1.6-1.3h-17.2
				c-0.8,0-1.5,0.5-1.6,1.3l-1.7,7.9c-0.1,0.5,0,1,0.3,1.4C288.5,42.7,289,42.9,289.5,42.9z"/>
		</g>
	</g>
</g>
<circle class="st1" cx="141" cy="469" r="53"/>
<circle class="st1" cx="456" cy="471" r="53"/>
<circle class="st1" cx="88" cy="205" r="53"/>
<circle class="st1" cx="509" cy="205" r="53"/>
<g>
	<g>
		<path class="st2" d="M98.3,176.5l-2.8-0.8c-0.4-0.1-0.7-0.1-1,0.1c-0.3,0.2-0.6,0.5-0.7,0.9l-16.6,57.5c-0.1,0.4-0.1,0.8,0.1,1.1
			c0.2,0.3,0.5,0.6,0.9,0.7l2.8,0.8c0.4,0.1,0.7,0.1,1-0.1c0.3-0.2,0.6-0.5,0.7-0.9l16.6-57.5c0.1-0.4,0.1-0.8-0.1-1.1
			C99,176.8,98.7,176.6,98.3,176.5z"/>
		<path class="st2" d="M73.4,187.7c0-0.4-0.1-0.7-0.4-1l-2.2-2.2c-0.3-0.3-0.6-0.4-1-0.4s-0.7,0.1-1,0.4l-20.8,20.8
			c-0.3,0.3-0.4,0.6-0.4,1c0,0.4,0.1,0.7,0.4,1L68.7,228c0.3,0.3,0.6,0.4,1,0.4s0.7-0.1,1-0.4l2.2-2.2c0.3-0.3,0.4-0.6,0.4-1
			c0-0.4-0.1-0.7-0.4-1l-17.5-17.5L73,188.7C73.3,188.4,73.4,188.1,73.4,187.7z"/>
		<path class="st2" d="M128.6,205.2l-20.8-20.8c-0.3-0.3-0.6-0.4-1-0.4c-0.4,0-0.7,0.1-1,0.4l-2.2,2.2c-0.3,0.3-0.4,0.6-0.4,1
			c0,0.4,0.1,0.7,0.4,1l17.5,17.5l-17.5,17.5c-0.3,0.3-0.4,0.6-0.4,1c0,0.4,0.1,0.7,0.4,1l2.2,2.2c0.3,0.3,0.6,0.4,1,0.4
			c0.4,0,0.7-0.1,1-0.4l20.8-20.8c0.3-0.3,0.4-0.6,0.4-1C129,205.8,128.9,205.5,128.6,205.2z"/>
	</g>
</g>
<g>
	<path class="st2" d="M539.2,175.7c-6.4-6.4-16.7-6.4-23.1,0l-11.5,11.5c-1,1-1,2.6,0,3.6s2.6,1,3.6,0l11.5-11.5
		c2.1-2.1,5-3.3,8-3.3c3,0,5.9,1.2,8,3.3c2.1,2.1,3.3,5,3.3,8c0,3-1.2,5.9-3.3,8l-15.1,15.1c-4.4,4.4-11.6,4.4-16,0
		c-1-1-2.6-1-3.6,0s-1,2.6,0,3.6c3.2,3.2,7.4,4.8,11.5,4.8c4.2,0,8.4-1.6,11.5-4.8l15.1-15.1c3.1-3.1,4.8-7.2,4.8-11.5
		C544,182.9,542.3,178.8,539.2,175.7z"/>
	<path class="st2" d="M509,221.9l-9.8,9.8c-2.1,2.1-5,3.3-8,3.3c-3,0-5.9-1.2-8-3.3c-4.4-4.4-4.4-11.6,0-16l14.2-14.2
		c2.1-2.1,5-3.3,8-3.3c3,0,5.9,1.2,8,3.3c1,1,2.6,1,3.6,0s1-2.6,0-3.6c-6.4-6.4-16.7-6.4-23.1,0l-14.2,14.2
		c-3.1,3.1-4.8,7.2-4.8,11.5c0,4.4,1.7,8.5,4.8,11.5c3.1,3.1,7.2,4.8,11.5,4.8c4.4,0,8.5-1.7,11.5-4.8l9.8-9.8c1-1,1-2.6,0-3.6
		C511.6,220.9,510,220.9,509,221.9z"/>
</g>
<g>
	<g>
		<path class="st2" d="M114.1,453.5c4.1,0,7.4-3.3,7.4-7.4c0-4-3.3-7.4-7.4-7.4s-7.4,3.3-7.4,7.4C106.7,450.2,110,453.5,114.1,453.5
			z M114.1,442.2c2.2,0,3.9,1.8,3.9,3.9s-1.8,3.9-3.9,3.9s-3.9-1.8-3.9-3.9S111.9,442.2,114.1,442.2z"/>
		<path class="st2" d="M114.1,476.2c4.1,0,7.4-3.3,7.4-7.4s-3.3-7.4-7.4-7.4s-7.4,3.3-7.4,7.4C106.7,472.9,110,476.2,114.1,476.2z
			 M114.1,464.9c2.2,0,3.9,1.8,3.9,3.9s-1.8,3.9-3.9,3.9s-3.9-1.8-3.9-3.9S111.9,464.9,114.1,464.9z"/>
		<path class="st2" d="M114.1,498.9c4.1,0,7.4-3.3,7.4-7.4c0-4.1-3.3-7.4-7.4-7.4s-7.4,3.3-7.4,7.4S110,498.9,114.1,498.9z
			 M114.1,487.6c2.2,0,3.9,1.8,3.9,3.9c0,2.2-1.8,3.9-3.9,3.9s-3.9-1.8-3.9-3.9S111.9,487.6,114.1,487.6z"/>
		<path class="st2" d="M131.2,447.8h42.1c0.9,0,1.7-0.8,1.7-1.7s-0.8-1.7-1.7-1.7h-42.1c-0.9,0-1.7,0.8-1.7,1.7
			S130.3,447.8,131.2,447.8z"/>
		<path class="st2" d="M131.2,470.6h42.1c0.9,0,1.7-0.8,1.7-1.7s-0.8-1.7-1.7-1.7h-42.1c-0.9,0-1.7,0.8-1.7,1.7
			S130.3,470.6,131.2,470.6z"/>
		<path class="st2" d="M131.2,493.3h42.1c0.9,0,1.7-0.8,1.7-1.7s-0.8-1.7-1.7-1.7h-42.1c-0.9,0-1.7,0.8-1.7,1.7
			S130.3,493.3,131.2,493.3z"/>
	</g>
</g>
<g>
	<g>
		<path class="st2" d="M447.3,443h-12.9c-3.6,0-6.5,2.9-6.5,6.5v12.9c0,3.6,2.9,6.5,6.5,6.5h12.9c3.6,0,6.5-2.9,6.5-6.5v-12.9
			C453.8,445.9,450.9,443,447.3,443z M449.4,462.3c0,1.2-0.9,2.1-2.1,2.1h-12.9c-1.2,0-2.1-0.9-2.1-2.1v-12.9c0-1.2,0.9-2.1,2.1-2.1
			h12.9c1.2,0,2.1,0.9,2.1,2.1V462.3z"/>
	</g>
</g>
<g>
	<g>
		<path class="st2" d="M477.4,443h-12.7c-3.6,0-6.6,2.9-6.6,6.6v12.7c0,3.6,2.9,6.6,6.6,6.6h12.7c3.6,0,6.6-2.9,6.6-6.6v-12.7
			C484,445.9,481.1,443,477.4,443z M479.6,462.3c0,1.2-1,2.2-2.2,2.2h-12.7c-1.2,0-2.2-1-2.2-2.2v-12.7c0-1.2,1-2.2,2.2-2.2h12.7
			c1.2,0,2.2,1,2.2,2.2V462.3z"/>
	</g>
</g>
<g>
	<g>
		<path class="st2" d="M447.3,473.2h-12.9c-3.6,0-6.5,2.9-6.5,6.5v12.9c0,3.6,2.9,6.5,6.5,6.5h12.9c3.6,0,6.5-2.9,6.5-6.5v-12.9
			C453.8,476.1,450.9,473.2,447.3,473.2z M449.4,492.5c0,1.2-0.9,2.1-2.1,2.1h-12.9c-1.2,0-2.1-0.9-2.1-2.1v-12.9
			c0-1.2,0.9-2.1,2.1-2.1h12.9c1.2,0,2.1,0.9,2.1,2.1V492.5z"/>
	</g>
</g>
<g>
	<g>
		<path class="st2" d="M477.4,473.2h-12.7c-3.6,0-6.6,2.9-6.6,6.6v12.7c0,3.6,2.9,6.6,6.6,6.6h12.7c3.6,0,6.6-2.9,6.6-6.6v-12.7
			C484,476.1,481.1,473.2,477.4,473.2z M479.6,492.4c0,1.2-1,2.2-2.2,2.2h-12.7c-1.2,0-2.2-1-2.2-2.2v-12.7c0-1.2,1-2.2,2.2-2.2
			h12.7c1.2,0,2.2,1,2.2,2.2V492.4z"/>
	</g>
</g>
<polygon class="st3" points="327,559 273,559 300,505 300,505 "/>
</svg>
