<svg width="480" height="120" viewBox="0 0 480 120" fill="none" xmlns="http://www.w3.org/2000/svg">
<g clip-path="url(#clip0)">
<path d="M423.115 127.998C422.551 127.838 380.966 127.661 321.865 127.485C174.421 127.039 -82 126.62 -82 126.62C-82 126.62 -37.9076 91.7757 24.6191 61.864C29.541 59.5108 34.3767 57.0589 39.0709 54.4801L133.84 2.39308C136.042 1.18048 138.598 0.425429 141.238 0.139254C145.094 -0.290816 149.138 0.282341 152.555 1.87004C201.969 24.8424 424.856 128.488 423.115 127.998Z" fill="url(#paint0_linear)"/>
<path d="M423.115 127.998C422.551 127.838 380.966 127.661 321.865 127.485C184.273 114.315 124.945 76.2962 104.85 59.3949C95.6962 51.6965 98.4785 40.0741 110.713 34.9052C129.216 27.0855 158.513 23.1947 159.782 23.0185C180.355 20.1252 141.364 0.424429 141.364 0.424429C141.364 0.424429 141.317 0.324995 141.238 0.138254C145.094 -0.291816 149.138 0.281341 152.555 1.86904C201.969 24.8422 424.856 128.488 423.115 127.998Z" fill="url(#paint1_linear)"/>
<path d="M397.977 127.999C397.488 127.925 361.507 127.842 310.369 127.761C182.792 127.553 -39.078 127.358 -39.078 127.358C-39.078 127.358 -0.926197 111.146 53.1744 97.229C57.4329 96.1344 61.6167 94.9929 65.6786 93.7933L147.678 69.5582C149.583 68.9939 151.794 68.6431 154.079 68.5097C157.416 68.31 160.914 68.5768 163.872 69.3148C206.629 80.0035 399.483 128.227 397.977 127.999Z" fill="url(#paint2_linear)"/>
<path d="M397.977 127.999C397.488 127.925 361.507 127.842 310.369 127.761C191.316 121.633 139.982 103.944 122.595 96.0802C114.674 92.4982 117.082 87.0908 127.667 84.6858C143.678 81.0472 169.027 79.2372 170.125 79.1555C187.926 77.8095 154.189 68.6431 154.189 68.6431C154.189 68.6431 154.148 68.597 154.081 68.5097C157.417 68.31 160.916 68.5768 163.873 69.3148C206.629 80.0035 399.483 128.227 397.977 127.999Z" fill="url(#paint3_linear)"/>
<path d="M582.001 114.093V126.987C575.47 126.995 567.342 127.011 557.949 127.027C524.665 127.084 475.434 127.173 424.663 127.286C413.465 127.31 402.198 127.334 391 127.359C356.29 127.439 322.34 127.52 293.792 127.609H293.781C249 127.747 217.486 127.876 217.061 127.997C217.256 127.868 219.153 126.971 222.43 125.418C226.282 123.616 232.042 120.908 239.227 117.553C239.791 117.294 240.354 117.027 240.94 116.752C241.136 116.663 241.343 116.566 241.55 116.469C289.538 94.0525 393.69 45.6211 422.111 32.4037C424.709 31.1992 427.768 30.7707 430.688 31.0941C432.688 31.3124 434.631 31.8863 436.298 32.7998L508.12 72.2822C511.685 74.2304 515.352 76.0898 519.077 77.8763C545.543 90.5359 567.641 104.36 582.001 114.093Z" fill="url(#paint4_linear)"/>
<path d="M217.056 127.998C217.483 127.877 249 127.744 293.793 127.61C398.073 117.627 443.038 88.8135 458.269 76.0036C465.206 70.1693 463.097 61.3602 453.825 57.4426C439.801 51.5162 417.598 48.5672 416.635 48.4338C401.043 46.2414 430.594 31.3094 430.594 31.3094C430.594 31.3094 430.63 31.2342 430.689 31.092C427.767 30.7662 424.702 31.2003 422.113 32.4032C384.662 49.817 215.738 128.37 217.056 127.998Z" fill="url(#paint5_linear)"/>
</g>
<defs>
<linearGradient id="paint0_linear" x1="50.5651" y1="64.0001" x2="555.691" y2="64.0001" gradientUnits="userSpaceOnUse">
<stop stop-color="#00388C"/>
<stop offset="0.256" stop-color="#30648F"/>
<stop offset="0.8361" stop-color="#A9D097"/>
<stop offset="1" stop-color="#CCF099"/>
</linearGradient>
<linearGradient id="paint1_linear" x1="29.7198" y1="63.9999" x2="353.41" y2="63.9999" gradientUnits="userSpaceOnUse">
<stop stop-color="#00388C"/>
<stop offset="0.256" stop-color="#30648F"/>
<stop offset="0.8361" stop-color="#A9D097"/>
<stop offset="1" stop-color="#CCF099"/>
</linearGradient>
<linearGradient id="paint2_linear" x1="134.644" y1="98.2222" x2="571.707" y2="98.2222" gradientUnits="userSpaceOnUse">
<stop stop-color="#00388C"/>
<stop offset="0.256" stop-color="#30648F"/>
<stop offset="0.8361" stop-color="#A9D097"/>
<stop offset="1" stop-color="#CCF099"/>
</linearGradient>
<linearGradient id="paint3_linear" x1="-6.02846" y1="98.2222" x2="274.047" y2="98.2222" gradientUnits="userSpaceOnUse">
<stop stop-color="#00388C"/>
<stop offset="0.256" stop-color="#30648F"/>
<stop offset="0.8361" stop-color="#A9D097"/>
<stop offset="1" stop-color="#CCF099"/>
</linearGradient>
<linearGradient id="paint4_linear" x1="282.819" y1="79.494" x2="647.759" y2="79.494" gradientUnits="userSpaceOnUse">
<stop stop-color="#00388C"/>
<stop offset="0.256" stop-color="#30648F"/>
<stop offset="0.8361" stop-color="#A9D097"/>
<stop offset="1" stop-color="#CCF099"/>
</linearGradient>
<linearGradient id="paint5_linear" x1="369.139" y1="130.666" x2="313.111" y2="-1.65044" gradientUnits="userSpaceOnUse">
<stop stop-color="#00388C"/>
<stop offset="0.256" stop-color="#30648F"/>
<stop offset="0.8361" stop-color="#A9D097"/>
<stop offset="1" stop-color="#CCF099"/>
</linearGradient>
<clipPath id="clip0">
<rect width="664" height="128" fill="white" transform="translate(-82)"/>
</clipPath>
</defs>
</svg>
